<svg xmlns="http://www.w3.org/2000/svg" version="1.1" xmlns:xlink="http://www.w3.org/1999/xlink" width="1000" height="1000"><metadata><rdf:RDF xmlns:rdf="http://www.w3.org/1999/02/22-rdf-syntax-ns#" xmlns:dc="http://purl.org/dc/elements/1.1/"><rdf:Description><dc:creator>RealFaviconGenerator</dc:creator><dc:source>https://realfavicongenerator.net</dc:source></rdf:Description></rdf:RDF></metadata><style>
    #light-icon {
      display: inline;
    }
    #dark-icon {
      display: none;
    }

    @media (prefers-color-scheme: dark) {
      #light-icon {
        display: none;
      }
      #dark-icon {
        display: inline;
      }
    }
  </style><g id="light-icon"><svg xmlns="http://www.w3.org/2000/svg" version="1.1" xmlns:xlink="http://www.w3.org/1999/xlink" width="1000" height="1000"><g><g transform="matrix(1.953125,0,0,1.953125,0,0)"><svg xmlns="http://www.w3.org/2000/svg" width="512" height="512" viewBox="0 0 512 512" fill="none"><path d="M255.924 3.5C263.727 3.5 271.343 5.88911 277.749 10.3457C283.955 14.6632 288.738 20.7209 291.499 27.748L291.76 28.4307L291.766 28.4463L342.877 169.042L483.409 220.148H483.408C490.794 222.779 497.179 227.644 501.675 234.069C506.167 240.489 508.552 248.146 508.499 255.98L508.497 256.716C508.408 264.307 506.034 271.702 501.675 277.931C497.179 284.356 490.794 289.22 483.408 291.851L483.409 291.852L342.854 342.98L291.766 483.554L291.76 483.569C289.045 490.887 284.155 497.198 277.749 501.654C271.343 506.111 263.727 508.5 255.924 508.5C248.121 508.5 240.505 506.111 234.099 501.654C227.693 497.198 222.803 490.887 220.088 483.569L220.082 483.554L168.992 342.957L28.4385 291.852L28.4229 291.846C21.1075 289.129 14.798 284.239 10.3428 277.831C5.8877 271.423 3.5 263.805 3.5 256C3.5 248.195 5.8877 240.577 10.3428 234.169C14.798 227.761 21.1075 222.871 28.4229 220.154L28.4385 220.148L168.992 169.042L220.082 28.4463L220.088 28.4307C222.803 21.1133 227.693 14.8024 234.099 10.3457C240.505 5.88912 248.121 3.5 255.924 3.5Z" fill="#2A2A2A" stroke="#FFFFEB" stroke-width="5"></path></svg></g></g></svg></g><g id="dark-icon"><svg xmlns="http://www.w3.org/2000/svg" version="1.1" xmlns:xlink="http://www.w3.org/1999/xlink" width="1000" height="1000"><g><g transform="matrix(1.953125,0,0,1.953125,0,0)"><svg xmlns="http://www.w3.org/2000/svg" width="512" height="512" viewBox="0 0 512 512" fill="none"><path d="M255.924 3.5C263.727 3.5 271.343 5.88911 277.749 10.3457C283.955 14.6632 288.738 20.7209 291.499 27.748L291.76 28.4307L291.766 28.4463L342.877 169.042L483.409 220.148H483.408C490.794 222.779 497.179 227.644 501.675 234.069C506.167 240.489 508.552 248.146 508.499 255.98L508.497 256.716C508.408 264.307 506.034 271.702 501.675 277.931C497.179 284.356 490.794 289.22 483.408 291.851L483.409 291.852L342.854 342.98L291.766 483.554L291.76 483.569C289.045 490.887 284.155 497.198 277.749 501.654C271.343 506.111 263.727 508.5 255.924 508.5C248.121 508.5 240.505 506.111 234.099 501.654C227.693 497.198 222.803 490.887 220.088 483.569L220.082 483.554L168.992 342.957L28.4385 291.852L28.4229 291.846C21.1075 289.129 14.798 284.239 10.3428 277.831C5.8877 271.423 3.5 263.805 3.5 256C3.5 248.195 5.8877 240.577 10.3428 234.169C14.798 227.761 21.1075 222.871 28.4229 220.154L28.4385 220.148L168.992 169.042L220.082 28.4463L220.088 28.4307C222.803 21.1133 227.693 14.8024 234.099 10.3457C240.505 5.88912 248.121 3.5 255.924 3.5Z" fill="#FFFFEB" stroke="#2A2A2A" stroke-width="5"></path></svg></g></g></svg></g></svg>